PathFileType	4	(X/Y/Z)	./resultDataOpenSim/trcMotMarkerGrf/sub10/qtm-14-03.trc
DataRate	CameraRate	NumFrames	NumMarkers	Units	OrigDataRate	OrigDataStartFrame	OrigNumFrames
250.000000	250.000000	14	24	m	250.000000	364	484
Frame#	Time	L.Toe.Tip			R.Toe.Tip			L.Ankle.Lat			R.Ankle.Lat			L.Ankle.Med			R.Ankle.Med			L.Heel			R.Heel			L.Knee.Lat			R.Knee.Lat			L.Knee.Med			R.Knee.Med			L.Thigh.Upper			R.Thigh.Upper			L.ASIS			R.ASIS			V.Sacral			L.Acromium			R.Acromium			C7			L.Elbow			R.Elbow			L.Wrist.Lat			R.Wrist.Lat
		X1	Y1	Z1	X2	Y2	Z2	X3	Y3	Z3	X4	Y4	Z4	X5	Y5	Z5	X6	Y6	Z6	X7	Y7	Z7	X8	Y8	Z8	X9	Y9	Z9	X10	Y10	Z10	X11	Y11	Z11	X12	Y12	Z12	X13	Y13	Z13	X14	Y14	Z14	X15	Y15	Z15	X16	Y16	Z16	X17	Y17	Z17	X18	Y18	Z18	X19	Y19	Z19	X20	Y20	Z20	X21	Y21	Z21	X22	Y22	Z22	X23	Y23	Z23	X24	Y24	Z24

364	1.452	0.71319952	0.098623332	-0.1429486	0.88666611	0.037857712	0.051618948	0.65164621	0.2180171	-0.16828517	0.74451868	0.061623066	0.084738263	0.67626025	0.22222842	-0.086621972	0.77122671	0.085806816	0.0015137318	0.58353792	0.24109032	-0.12402191	0.69289864	0.040966412	0.036810414	0.93798657	0.45848574	-0.17440391	0.8699789	0.4400671	0.11751636	0.95115684	0.42999503	-0.054253441	0.88674672	0.44808846	-0.0076494942	0.82039434	0.8205818	-0.20099671	0.83043855	0.85482991	0.1794186	0.88187475	0.93035422	-0.13752993	0.9004993	0.94359868	0.10583512	0.6961331	0.96469109	-0.0070910511	0.89307586	1.4251039	-0.14987855	0.83998734	1.412578	0.15139247	0.7989997	1.4483236	-0.015376052	0.83650093	1.1690699	-0.38128039	0.70750923	1.1054838	0.26611529	1.070873	1.1669109	-0.48888933	0.73793778	1.0959457	0.51581003
365	1.456	0.72934802	0.096294868	-0.14272434	0.88668862	0.037835193	0.051623037	0.6648074	0.21406308	-0.16824733	0.7445832	0.061940197	0.084516529	0.69061657	0.21873368	-0.086604733	0.77149994	0.086106596	0.0013723998	0.59617457	0.23552991	-0.12401788	0.69309345	0.041418885	0.036439946	0.94632951	0.46056904	-0.17419598	0.8702498	0.44035437	0.11780618	0.96106715	0.43254813	-0.053990637	0.88765976	0.4483275	-0.0075633083	0.82609172	0.82182862	-0.20141797	0.83365652	0.85545665	0.17906516	0.8872128	0.93162809	-0.13752615	0.90477692	0.94436604	0.10592139	0.70089884	0.96572609	-0.0079979643	0.89776729	1.4258899	-0.15005527	0.84510061	1.4128229	0.15175591	0.80372059	1.4492214	-0.015076448	0.83896325	1.1685877	-0.38001672	0.71362453	1.1040787	0.26418091	1.0735155	1.1629043	-0.48727242	0.74640731	1.0913483	0.51325135
366	1.46	0.74585841	0.094007038	-0.14255026	0.88671662	0.037825445	0.051621213	0.67808837	0.20996107	-0.16818657	0.74463582	0.062266684	0.084290308	0.70460865	0.21516441	-0.086552738	0.77179428	0.086385206	0.0011963788	0.60903661	0.22977922	-0.12404316	0.69333411	0.041934352	0.036053674	0.9545716	0.46258673	-0.17394941	0.87059772	0.4406346	0.11806031	0.97090937	0.43508186	-0.053854393	0.88868725	0.44842513	-0.007486414	0.83182455	0.82302801	-0.20184481	0.83687372	0.85601788	0.17868142	0.89255872	0.9328369	-0.13752524	0.90904773	0.9450848	0.10600611	0.70564938	0.96670776	-0.0089417095	0.90247435	1.4265981	-0.15024441	0.85017188	1.4130271	0.15209174	0.80844155	1.4500531	-0.014800621	0.84141577	1.1681417	-0.37879287	0.71990678	1.1025849	0.26223064	1.0760846	1.1589149	-0.48563202	0.75485765	1.0868607	0.51067104
367	1.464	0.76255195	0.091793763	-0.14239443	0.88674534	0.037829675	0.051617569	0.69150136	0.20573145	-0.16809164	0.74467763	0.062611688	0.084059235	0.71821475	0.21152604	-0.086431519	0.77209526	0.086683916	0.0010070137	0.62200324	0.22388016	-0.12402743	0.69353892	0.042487139	0.035674662	0.96275949	0.46451909	-0.17366272	0.87106753	0.44090316	0.11824784	0.97980488	0.43759667	-0.053832588	0.88978566	0.44843517	-0.0074056115	0.83759301	0.82418278	-0.20228166	0.84009472	0.85652698	0.17827019	0.89790774	0.93398586	-0.1375282	0.91330756	0.94575671	0.10609049	0.71038389	0.96763667	-0.0099170067	0.90719246	1.4272185	-0.15044639	0.85520915	1.4131913	0.15241026	0.81316436	1.4508247	-0.01455561	0.84387437	1.1676982	-0.37754897	0.72631454	1.1010417	0.26026739	1.078533	1.1549567	-0.48397303	0.76330487	1.0824792	0.50806861
368	1.468	0.77925904	0.0896169	-0.14222361	0.88676946	0.037843078	0.051614345	0.70504864	0.20139658	-0.16795839	0.74471596	0.06298526	0.083818668	0.73156244	0.20782215	-0.086211794	0.77236226	0.087014734	0.00082106015	0.63503122	0.21785502	-0.12395802	0.69368151	0.043043842	0.035298693	0.97085243	0.46635848	-0.1733464	0.87166252	0.44116479	0.11836754	0.9874218	0.44005573	-0.053855096	0.89088531	0.44848756	-0.0073281803	0.84339905	0.82529445	-0.2027311	0.84332774	0.85700389	0.17783773	0.90326247	0.93507985	-0.13753666	0.91755373	0.94638438	0.10617562	0.71510565	0.96850866	-0.01091159	0.91190659	1.4277631	-0.1506652	0.86022614	1.4133221	0.15272371	0.81788657	1.4515491	-0.014346917	0.84634858	1.1672282	-0.37626151	0.73272249	1.0995312	0.25833392	1.0808232	1.151094	-0.48229996	0.77176034	1.0782059	0.50544584
369	1.472	0.79593502	0.087408374	-0.1420244	0.88678981	0.037859849	0.051609302	0.71872001	0.19696994	-0.16779112	0.74475816	0.063387644	0.083564024	0.7446484	0.204071	-0.085835581	0.77257489	0.087354984	0.00064203388	0.64823263	0.21168465	-0.12391121	0.69377653	0.043587981	0.03492022	0.97881017	0.4681093	-0.17302325	0.87237658	0.44142855	0.1184354	0.994398	0.44240346	-0.053828385	0.89199828	0.44864756	-0.0072834249	0.84924585	0.82636341	-0.2031896	0.84658185	0.85746025	0.17739339	0.90862781	0.93611974	-0.13755242	0.92178403	0.94696665	0.10625897	0.71982313	0.96932493	-0.011919799	0.91660277	1.4282589	-0.15090483	0.86522873	1.4134275	0.15303272	0.82260776	1.4522258	-0.014172702	0.84884497	1.1667166	-0.37494298	0.73905489	1.0980989	0.25645988	1.082946	1.1473495	-0.48062431	0.78022215	1.0740448	0.5028085
370	1.476	0.81261248	0.085139377	-0.14180737	0.88681148	0.037869616	0.051595318	0.73250438	0.19245177	-0.16759947	0.74481372	0.063807124	0.083295305	0.75745268	0.20028337	-0.085276736	0.77277565	0.087687514	0.00045920765	0.66175724	0.20533541	-0.12394806	0.69385665	0.044128301	0.034551868	0.98663979	0.46977499	-0.17272199	0.87319604	0.44169527	0.11846338	1.0016117	0.44461463	-0.053689613	0.89318389	0.44888796	-0.0073085624	0.85513587	0.8273915	-0.20365064	0.84986662	0.85789589	0.17694843	0.91400607	0.93710298	-0.13757263	0.92599765	0.94750157	0.10633567	0.72453797	0.97008398	-0.012948351	0.92128145	1.4287217	-0.15115758	0.87021132	1.4135124	0.15332626	0.82734154	1.4528359	-0.014037061	0.85136618	1.1661602	-0.37360839	0.74533915	1.0967258	0.2546382	1.0849655	1.1436591	-0.47896046	0.78867393	1.0700013	0.50016587
371	1.48	0.82933496	0.082842083	-0.14159005	0.88683676	0.037860171	0.051565602	0.7464007	0.18784394	-0.16738885	0.74488952	0.064227815	0.083021754	0.7702012	0.19643894	-0.084625493	0.77299303	0.088026538	0.00026990574	0.67559808	0.19882347	-0.12400904	0.69395876	0.044691973	0.034234539	0.99432193	0.47134659	-0.17247239	0.87408165	0.44195394	0.11845566	1.0094359	0.44670355	-0.053443463	0.89444961	0.44915148	-0.007416152	0.8610669	0.82838399	-0.2041125	0.85319515	0.85830905	0.17651509	0.91939759	0.93802549	-0.13759123	0.93019754	0.94799101	0.10640431	0.72923739	0.97077151	-0.014012514	0.92595493	1.4291473	-0.15140757	0.87516738	1.4135763	0.15359514	0.83211883	1.4533578	-0.013958092	0.85391039	1.1655602	-0.37225667	0.75163003	1.0953735	0.25284818	1.0869954	1.1399364	-0.47731933	0.79709924	1.066079	0.49752342
372	1.484	0.84617267	0.080583066	-0.14138506	0.88686214	0.037834338	0.051522747	0.76042192	0.18316654	-0.16715586	0.74497026	0.064643097	0.082760971	0.78326085	0.19250705	-0.084031269	0.77317847	0.088399074	8.7517435e-05	0.68960305	0.19222506	-0.12397783	0.69412218	0.045306834	0.034028663	1.001775	0.47279957	-0.17230008	0.87499091	0.44219254	0.1184134	1.0175728	0.44867919	-0.053168155	0.89572521	0.44940986	-0.0075898443	0.86703263	0.8293468	-0.20457934	0.85657687	0.8587049	0.17610005	0.92479845	0.9388866	-0.13760508	0.934388	0.94843884	0.10646892	0.73390478	0.97136456	-0.015128815	0.93063143	1.4295289	-0.15164788	0.88009967	1.4136168	0.15384162	0.83695616	1.4537867	-0.013941794	0.85647553	1.1649137	-0.37088152	0.75793392	1.0940328	0.25108271	1.0891033	1.1361684	-0.47570441	0.805493	1.0622769	0.49487833
373	1.488	0.86322709	0.078420354	-0.14120119	0.88688352	0.037811245	0.0514777	0.77458652	0.17844928	-0.16689498	0.74500949	0.065066169	0.082532946	0.79676897	0.1884921	-0.083557206	0.77326619	0.088808481	-8.3083066e-05	0.70367277	0.18561723	-0.1238158	0.69436631	0.045958901	0.033950668	1.0089579	0.47410395	-0.1722055	0.87591432	0.44240907	0.11833565	1.0254374	0.45051296	-0.052961131	0.89692929	0.44966146	-0.0078061357	0.87302809	0.83028023	-0.20505374	0.86000824	0.85909294	0.17569705	0.93019707	0.93969559	-0.13761733	0.93856946	0.9488465	0.10653426	0.73854161	0.97184944	-0.016299617	0.93531118	1.4298655	-0.15188494	0.88501807	1.4136339	0.1540731	0.84181852	1.454148	-0.013954256	0.859062	1.1642163	-0.36948288	0.7642239	1.0927217	0.2493472	1.0912783	1.1324114	-0.47411348	0.81385815	1.0585907	0.49222584
374	1.492	0.88054719	0.076371149	-0.14104052	0.8869018	0.037803245	0.051437728	0.78889843	0.1737115	-0.16660349	0.74497207	0.065520686	0.082349196	0.81057916	0.18443355	-0.083155756	0.77328454	0.089223428	-0.00024681077	0.71780098	0.17902901	-0.12353118	0.69465385	0.04657608	0.033906352	1.0159821	0.47524983	-0.17214397	0.8768696	0.44260903	0.11822131	1.0327288	0.45216339	-0.052870109	0.89808604	0.44986169	-0.0080206264	0.87905051	0.8311784	-0.20553301	0.8634783	0.85947474	0.17529172	0.93557468	0.94046825	-0.13763906	0.94273969	0.94921337	0.10660166	0.74318054	0.97224112	-0.017504236	0.9399965	1.4301555	-0.15212711	0.88992923	1.4136292	0.15429083	0.84664902	1.4544819	-0.013947345	0.86167072	1.1634715	-0.36806275	0.77048551	1.0914574	0.24764276	1.0934816	1.1287148	-0.47254501	0.82219804	1.0550184	0.4895668
375	1.496	0.89803756	0.074416456	-0.14088791	0.88692196	0.037806389	0.051400416	0.80334162	0.16895883	-0.16628102	0.74490391	0.06601322	0.082196613	0.82454438	0.18035959	-0.082759817	0.77338927	0.089609067	-0.00040224028	0.7319893	0.17243256	-0.12309936	0.69490912	0.047110876	0.033765597	1.0230271	0.47626624	-0.17206086	0.8778756	0.44279691	0.11807458	1.0396761	0.45362893	-0.052845912	0.89936012	0.44989285	-0.008149545	0.88509557	0.83203667	-0.20601571	0.86698576	0.85984161	0.17487836	0.94091742	0.94121183	-0.13768133	0.94689845	0.94954048	0.10666958	0.74785995	0.97256808	-0.018723033	0.94469157	1.4304011	-0.15237508	0.89483223	1.4136013	0.15448962	0.85142999	1.454807	-0.013908489	0.86430274	1.1626892	-0.36661983	0.7767132	1.0902398	0.24596439	1.095682	1.1250903	-0.47099493	0.83051229	1.0515591	0.48690612
376	1.5	0.91552682	0.072533026	-0.14071753	0.88694838	0.037812443	0.051358952	0.81789861	0.16419449	-0.16592941	0.74491712	0.066521786	0.082038292	0.83866567	0.17626794	-0.082340844	0.77368059	0.089975211	-0.00056107359	0.74628137	0.16578033	-0.12253119	0.69508297	0.047604633	0.03350218	1.0301437	0.47720835	-0.17194869	0.87894134	0.44297466	0.11790677	1.047107	0.45498351	-0.052683761	0.90087508	0.44967935	-0.0081445839	0.89115876	0.83285378	-0.20650817	0.87054079	0.86018429	0.17446408	0.94624222	0.94191579	-0.13773781	0.95104756	0.94983065	0.10673633	0.75258261	0.97284102	-0.01995909	0.94939553	1.4306086	-0.15262118	0.89972385	1.4135471	0.15466394	0.85618321	1.4551132	-0.01386328	0.86696019	1.1618789	-0.36514409	0.7828695	1.0890543	0.24431411	1.0978657	1.1215407	-0.46944577	0.83879984	1.0482076	0.4842476
377	1.504	0.93293638	0.070714939	-0.14051929	0.88698014	0.037816794	0.051309837	0.83256549	0.15942555	-0.16555055	0.7450776	0.067016327	0.081843323	0.8530027	0.17214625	-0.081905394	0.77403015	0.090365904	-0.00075500022	0.76078367	0.15906351	-0.12191396	0.69516876	0.048117374	0.033188371	1.0372362	0.47811591	-0.171842	0.88006617	0.44314397	0.11772987	1.0563181	0.4563486	-0.05203764	0.90254743	0.44931272	-0.0080861091	0.89723909	0.83362759	-0.2070165	0.87414789	0.86049907	0.17405117	0.95159387	0.94256072	-0.13778816	0.95518897	0.950085	0.10679994	0.75732201	0.9730615	-0.021215553	0.9541076	1.4307683	-0.15285703	0.9046052	1.4134669	0.15481299	0.8609306	1.4553813	-0.013838841	0.86964544	1.161057	-0.36361086	0.7888771	1.0878921	0.24269746	1.1000359	1.1180811	-0.46787256	0.84706462	1.0449561	0.48159236
